<svg xmlns="http://www.w3.org/2000/svg" version="1.1" xmlns:xlink="http://www.w3.org/1999/xlink" xmlns:svgjs="http://svgjs.dev/svgjs" width="1440" height="560" preserveAspectRatio="none" viewBox="0 0 1440 560"><g mask="url(&quot;#SvgjsMask1199&quot;)" fill="none"><rect width="1440" height="560" x="0" y="0" fill="url(&quot;#SvgjsLinearGradient1200&quot;)"></rect><path d="M1440 0L959.28 0L1440 17.31z" fill="rgba(255, 255, 255, .1)"></path><path d="M959.28 0L1440 17.31L1440 35.57L566.77 0z" fill="rgba(255, 255, 255, .075)"></path><path d="M566.77 0L1440 35.57L1440 177.45999999999998L313.92999999999995 0z" fill="rgba(255, 255, 255, .05)"></path><path d="M313.93000000000006 0L1440 177.45999999999998L1440 285.21L139.52000000000007 0z" fill="rgba(255, 255, 255, .025)"></path><path d="M0 560L334.02 560L0 322.6z" fill="rgba(0, 0, 0, .1)"></path><path d="M0 322.6L334.02 560L472.29999999999995 560L0 148.42000000000002z" fill="rgba(0, 0, 0, .075)"></path><path d="M0 148.41999999999996L472.29999999999995 560L772.3299999999999 560L0 87.32999999999996z" fill="rgba(0, 0, 0, .05)"></path><path d="M0 87.32999999999993L772.3299999999999 560L995.17 560L0 83.06999999999992z" fill="rgba(0, 0, 0, .025)"></path></g><defs><mask id="SvgjsMask1199"><rect width="1440" height="560" fill="#ffffff"></rect></mask><linearGradient x1="50%" y1="0%" x2="50%" y2="100%" gradientUnits="userSpaceOnUse" id="SvgjsLinearGradient1200"><stop stop-color="#0e2a47" offset="0"></stop><stop stop-color="rgba(88, 161, 255, 1)" offset="1"></stop></linearGradient></defs></svg>